HIERARCHY
ROOT Hips
{
    OFFSET   0.000000   0.000000   0.000000
    CHANNELS 6 Xposition Yposition Zposition Zrotation Xrotation Yrotation
    JOINT Chest
    {
        OFFSET   0.000000   8.007230   0.000000
        CHANNELS 3 Zrotation Xrotation Yrotation
        JOINT Chest2
        {
            OFFSET   0.000000  22.077100   0.000000
            CHANNELS 3 Zrotation Xrotation Yrotation
            JOINT Neck
            {
                OFFSET   0.000000  23.254700   0.000000
                CHANNELS 3 Zrotation Xrotation Yrotation
                JOINT Head
                {
                    OFFSET   0.000010  14.370000   1.956610
                    CHANNELS 3 Zrotation Xrotation Yrotation
                    End Site
                    {
                        OFFSET   0.000000  19.566000   0.000000
                    }
                }
            }
            JOINT LeftCollar
            {
                OFFSET   3.911900  19.017000  -0.467063
                CHANNELS 3 Zrotation Xrotation Yrotation
                JOINT LeftShoulder
                {
                    OFFSET  10.383700   0.000000   0.000000
                    CHANNELS 3 Zrotation Xrotation Yrotation
                    JOINT LeftElbow
                    {
                        OFFSET  26.662100   0.001671   0.000522
                        CHANNELS 3 Zrotation Xrotation Yrotation
                        JOINT LeftWrist
                        {
                            OFFSET  28.869000   0.000037  -0.000114
                            CHANNELS 3 Zrotation Xrotation Yrotation
                            JOINT LeftFinger0
                            {
                                OFFSET   2.044650  -2.323450   3.252850
                                CHANNELS 3 Zrotation Xrotation Yrotation
                                JOINT LeftFinger01
                                {
                                    OFFSET   3.088140   0.000000   0.000000
                                    CHANNELS 3 Zrotation Xrotation Yrotation
                                    JOINT LeftFinger02
                                    {
                                        OFFSET   2.639460   0.000000   0.000000
                                        CHANNELS 3 Zrotation Xrotation Yrotation
                                        End Site
                                        {
                                            OFFSET   2.582190   0.000000   0.000000
                                        }
                                    }
                                }
                            }
                            JOINT LeftFinger1
                            {
                                OFFSET   8.364480   0.000000   3.252850
                                CHANNELS 3 Zrotation Xrotation Yrotation
                                JOINT LeftFinger11
                                {
                                    OFFSET   4.646930   0.000000   0.000000
                                    CHANNELS 3 Zrotation Xrotation Yrotation
                                    JOINT LeftFinger12
                                    {
                                        OFFSET   2.323470   0.000000   0.000000
                                        CHANNELS 3 Zrotation Xrotation Yrotation
                                        End Site
                                        {
                                            OFFSET   2.273050   0.000000   0.000000
                                        }
                                    }
                                }
                            }
                            JOINT LeftFinger2
                            {
                                OFFSET   8.364490   0.000016   1.078090
                                CHANNELS 3 Zrotation Xrotation Yrotation
                                JOINT LeftFinger21
                                {
                                    OFFSET   5.111620   0.000000   0.000000
                                    CHANNELS 3 Zrotation Xrotation Yrotation
                                    JOINT LeftFinger22
                                    {
                                        OFFSET   2.788150   0.000013   0.000000
                                        CHANNELS 3 Zrotation Xrotation Yrotation
                                        End Site
                                        {
                                            OFFSET   2.727660   0.000000   0.000000
                                        }
                                    }
                                }
                            }
                            JOINT LeftFinger3
                            {
                                OFFSET   7.899780   0.000016  -1.078090
                                CHANNELS 3 Zrotation Xrotation Yrotation
                                JOINT LeftFinger31
                                {
                                    OFFSET   4.646930   0.000000   0.000000
                                    CHANNELS 3 Zrotation Xrotation Yrotation
                                    JOINT LeftFinger32
                                    {
                                        OFFSET   2.323470   0.000000   0.000000
                                        CHANNELS 3 Zrotation Xrotation Yrotation
                                        End Site
                                        {
                                            OFFSET   2.273050   0.000000   0.000000
                                        }
                                    }
                                }
                            }
                            JOINT LeftFinger4
                            {
                                OFFSET   7.435080   0.000000  -3.252850
                                CHANNELS 3 Zrotation Xrotation Yrotation
                                JOINT LeftFinger41
                                {
                                    OFFSET   3.717550   0.000000   0.000000
                                    CHANNELS 3 Zrotation Xrotation Yrotation
                                    JOINT LeftFinger42
                                    {
                                        OFFSET   1.858760   0.000000   0.000000
                                        CHANNELS 3 Zrotation Xrotation Yrotation
                                        End Site
                                        {
                                            OFFSET   1.818440   0.000000   0.000000
                                        }
                                    }
                                }
                            }
                        }
                    }
                }
            }
            JOINT RightCollar
            {
                OFFSET  -3.911900  19.017000  -0.467064
                CHANNELS 3 Zrotation Xrotation Yrotation
                JOINT RightShoulder
                {
                    OFFSET -10.383700   0.000000   0.000000
                    CHANNELS 3 Zrotation Xrotation Yrotation
                    JOINT RightElbow
                    {
                        OFFSET -26.662100   0.001633   0.000260
                        CHANNELS 3 Zrotation Xrotation Yrotation
                        JOINT RightWrist
                        {
                            OFFSET -28.869000  -0.000045  -0.000080
                            CHANNELS 3 Zrotation Xrotation Yrotation
                            JOINT RightFinger0
                            {
                                OFFSET  -2.044660  -2.323490   3.252850
                                CHANNELS 3 Zrotation Xrotation Yrotation
                                JOINT RightFinger01
                                {
                                    OFFSET  -3.088140   0.000000   0.000000
                                    CHANNELS 3 Zrotation Xrotation Yrotation
                                    JOINT RightFinger02
                                    {
                                        OFFSET  -2.639450   0.000000   0.000000
                                        CHANNELS 3 Zrotation Xrotation Yrotation
                                        End Site
                                        {
                                            OFFSET  -2.582190   0.000000   0.000000
                                        }
                                    }
                                }
                            }
                            JOINT RightFinger1
                            {
                                OFFSET  -8.364480   0.000000   3.252850
                                CHANNELS 3 Zrotation Xrotation Yrotation
                                JOINT RightFinger11
                                {
                                    OFFSET  -4.646920   0.000000   0.000000
                                    CHANNELS 3 Zrotation Xrotation Yrotation
                                    JOINT RightFinger12
                                    {
                                        OFFSET  -2.323470   0.000000   0.000000
                                        CHANNELS 3 Zrotation Xrotation Yrotation
                                        End Site
                                        {
                                            OFFSET  -2.273050   0.000000   0.000000
                                        }
                                    }
                                }
                            }
                            JOINT RightFinger2
                            {
                                OFFSET  -8.364480   0.000000   1.078090
                                CHANNELS 3 Zrotation Xrotation Yrotation
                                JOINT RightFinger21
                                {
                                    OFFSET  -5.111610   0.000000   0.000000
                                    CHANNELS 3 Zrotation Xrotation Yrotation
                                    JOINT RightFinger22
                                    {
                                        OFFSET  -2.788160   0.000000   0.000000
                                        CHANNELS 3 Zrotation Xrotation Yrotation
                                        End Site
                                        {
                                            OFFSET  -2.727660   0.000000   0.000000
                                        }
                                    }
                                }
                            }
                            JOINT RightFinger3
                            {
                                OFFSET  -7.899780   0.000000  -1.078090
                                CHANNELS 3 Zrotation Xrotation Yrotation
                                JOINT RightFinger31
                                {
                                    OFFSET  -4.646930   0.000000   0.000000
                                    CHANNELS 3 Zrotation Xrotation Yrotation
                                    JOINT RightFinger32
                                    {
                                        OFFSET  -2.323470   0.000000   0.000000
                                        CHANNELS 3 Zrotation Xrotation Yrotation
                                        End Site
                                        {
                                            OFFSET  -2.273050   0.000000   0.000000
                                        }
                                    }
                                }
                            }
                            JOINT RightFinger4
                            {
                                OFFSET  -7.435090   0.000000  -3.252850
                                CHANNELS 3 Zrotation Xrotation Yrotation
                                JOINT RightFinger41
                                {
                                    OFFSET  -3.717550   0.000000   0.000000
                                    CHANNELS 3 Zrotation Xrotation Yrotation
                                    JOINT RightFinger42
                                    {
                                        OFFSET  -1.858760   0.000000   0.000000
                                        CHANNELS 3 Zrotation Xrotation Yrotation
                                        End Site
                                        {
                                            OFFSET  -1.818440   0.000000   0.000000
                                        }
                                    }
                                }
                            }
                        }
                    }
                }
            }
        }
    }
    JOINT LeftHip
    {
        OFFSET   9.782990   0.000000   0.000000
        CHANNELS 3 Zrotation Xrotation Yrotation
        JOINT LeftKnee
        {
            OFFSET  -0.000063 -41.789100   0.001657
            CHANNELS 3 Zrotation Xrotation Yrotation
            JOINT LeftAnkle
            {
                OFFSET   0.000078 -41.133200  -0.000113
                CHANNELS 3 Zrotation Xrotation Yrotation
                JOINT LeftToe
                {
                    OFFSET   0.000000  -6.358970  14.674500
                    CHANNELS 3 Zrotation Xrotation Yrotation
                    End Site
                    {
                        OFFSET   0.000000   0.000000   3.913200
                    }
                }
            }
        }
    }
    JOINT RightHip
    {
        OFFSET  -9.782990   0.000000   0.000000
        CHANNELS 3 Zrotation Xrotation Yrotation
        JOINT RightKnee
        {
            OFFSET   0.000053 -41.789200   0.000277
            CHANNELS 3 Zrotation Xrotation Yrotation
            JOINT RightAnkle
            {
                OFFSET   0.000030 -41.133200  -0.000150
                CHANNELS 3 Zrotation Xrotation Yrotation
                JOINT RightToe
                {
                    OFFSET   0.000000  -6.358960  14.674500
                    CHANNELS 3 Zrotation Xrotation Yrotation
                    End Site
                    {
                        OFFSET   0.000000   0.000000   3.913200
                    }
                }
            }
        }
    }
}
MOTION
Frames: 4
Frame Time:   0.016667
 -1.822560  89.529800  -0.887817  -1.762710  -7.208250  -0.310610   0.939242   2.709340  -0.719781   1.915710   5.406230  -1.486470   0.883620   0.448787  -0.015850   1.451780   0.909119   1.243880  -1.908900  -0.278097   1.808030 -79.919000  13.803500   3.471740  -1.436190  -4.940840 -13.577700   9.333270  -5.256970  -1.578230  34.831200  19.861300 -58.522500 -27.813300   0.000732   0.008883  -8.906660  -0.000122  -0.001076 -23.980000   4.912730 -10.871700 -20.003600  -0.001355   0.000324 -14.002500   0.000000  -0.006042 -27.750200   0.455510  -0.865474 -30.556500  -0.008124  -0.001993 -20.350700  -0.004243  -0.009781 -27.079300   0.445487  -0.870679 -27.398400   0.002753   0.002244 -18.247300   0.006017   0.001919 -25.891600  -0.774258   1.601700 -38.853500   0.000708  -0.001208 -25.876500   0.004257   0.002586   3.391740  -1.432590   4.453390  75.241700   2.114540  -9.044670   0.686461  -7.944770   7.022890  -0.056566   2.695960   1.328100 -38.007200  20.001300  59.775600  11.847600  -0.002449   0.000594   0.923818   0.009744   0.011749  16.094200   3.867930  13.170400  13.533600  -0.003403   0.011327   9.468000  -0.005011   0.003696  26.194900   3.815250   7.724250  26.452600  -0.013760   0.000857  17.617400  -0.002680   0.001355  20.767500   1.096610   2.891060  20.795300  -0.002258   0.002351  13.847600  -0.006641   0.001890  25.148700   1.146120   2.439700  37.759700  -0.001683   0.005185  25.148000   0.007857   0.003597   1.979050   9.394910   2.815820   1.263170  -0.002920   2.691370  -1.564780  -2.870000   1.460150  -0.000000   0.000000  -0.000000   3.808070   9.060540  -2.124040  -0.213417   1.759130  -3.187340  -2.103090  -4.636240  -2.641800  -0.000000   0.000000   0.000000
 -1.822780  89.529800  -0.887845  -1.762160  -7.208020  -0.306679   0.939277   2.717740  -0.718306   1.915880   5.423050  -1.483680   0.891284   0.439962  -0.015851   1.464350   0.891301   1.249110  -1.908770  -0.284205   1.813070 -79.907100  13.824400   3.471220  -1.445060  -4.961350 -13.578100   9.322350  -5.242430  -1.584440  34.836800  19.874200 -58.536400 -27.804300   0.000742   0.008889  -8.902130  -0.000123  -0.001071 -23.965400   4.912700 -10.876700 -19.992000  -0.001362   0.000323 -13.994400  -0.000029  -0.006041 -27.749900   0.466116  -0.885918 -30.523800  -0.008103  -0.001968 -20.328900  -0.004243  -0.009765 -27.078600   0.455915  -0.891216 -27.382600   0.002742   0.002243 -18.236800   0.006018   0.001919 -25.878100  -0.774284   1.601700 -38.833300   0.000701  -0.001204 -25.863000   0.004257   0.002578   3.398650  -1.445040   4.459780  75.238500   2.121400  -9.040380   0.686087  -7.957300   7.009040  -0.080833   2.709560   1.328430 -37.994100  19.998100  59.790200  11.894100  -0.002453   0.000594   0.947050   0.009746   0.011743  16.098200   3.868250  13.166900  13.536600  -0.003403   0.011324   9.472520  -0.005013   0.003690  26.189000   3.815070   7.724570  26.446700  -0.013762   0.000856  17.613500  -0.002685   0.001342  20.769400   1.096470   2.888510  20.797100  -0.002252   0.002344  13.849700  -0.006635   0.001884  25.148700   1.154870   2.458320  37.760600  -0.001679   0.005179  25.148600   0.007852   0.003592   1.979710   9.375030   2.815350   1.263600   0.034164   2.691280  -1.565910  -2.887200   1.458020  -0.000000   0.000000   0.000000   3.806950   9.060230  -2.124250  -0.212843   1.769030  -3.187730  -2.103040  -4.636250  -2.642000   0.000000   0.000000   0.000000
 -1.823000  89.529800  -0.887873  -1.761120  -7.207800  -0.299248   0.939323   2.731980  -0.715515   1.916030   5.451600  -1.478350   0.904468   0.425080  -0.015852   1.485980   0.861165   1.254340  -1.908580  -0.293185   1.818110 -79.887700  13.852600   3.468140  -1.455960  -4.981850 -13.578600   9.311490  -5.225490  -1.590650  34.843200  19.886000 -58.552400 -27.795200   0.000768   0.008904  -8.897590  -0.000126  -0.001064 -23.945100   4.912660 -10.886700 -19.975700  -0.001374   0.000321 -13.983000  -0.000084  -0.006039 -27.749500   0.478849  -0.910279 -30.491000  -0.008054  -0.001917 -20.307000  -0.004245  -0.009727 -27.077700   0.468344  -0.915730 -27.360900   0.002713   0.002242 -18.222400   0.006018   0.001920 -25.859600  -0.774334   1.601700 -38.805500   0.000679  -0.001193 -25.844500   0.004257   0.002559   3.411560  -1.466800   4.466180  75.229100   2.131740  -9.032240   0.685086  -7.971020   6.989540  -0.114677   2.750260   1.328790 -37.973300  19.992900  59.813300  11.986900  -0.002470   0.000595   0.993458   0.009747   0.011731  16.110200   3.868680  13.155800  13.546000  -0.003402   0.011317   9.482180  -0.005018   0.003673  26.179700   3.814810   7.724890  26.437400  -0.013769   0.000853  17.607300  -0.002699   0.001307  20.778100   1.096220   2.883450  20.805800  -0.002235   0.002327  13.856700  -0.006620   0.001870  25.152300   1.167030   2.483710  37.766400  -0.001668   0.005161  25.152500   0.007837   0.003578   1.980370   9.355150   2.814890   1.264020   0.071247   2.690610  -1.567160  -2.904400   1.453710  -0.000000   0.000000  -0.000000   3.804080   9.059930  -2.124450  -0.212198   1.778930  -3.190400  -2.102930  -4.636300  -2.642210   0.000000   0.000000   0.000000
 -1.821800  89.529800  -0.887819  -1.759940  -7.209110  -0.290890   0.938196   2.743590  -0.711726   1.913740   5.474920  -1.470940   0.915907   0.412729  -0.015870   1.504730   0.835907   1.249600  -1.908600  -0.296598   1.809750 -79.872600  13.857600   3.459960  -1.459840  -4.981790 -13.575000   9.326770  -5.222690  -1.589510  34.828300  19.873600 -58.548300 -27.816800   0.000810   0.008928  -8.908400  -0.000132  -0.001061 -23.936600   4.912600 -10.901600 -19.968900  -0.001381   0.000323 -13.978300  -0.000141  -0.006041 -27.749600   0.481330  -0.914848 -30.499300  -0.007984  -0.001852 -20.312600  -0.004253  -0.009667 -27.080000   0.470679  -0.920369 -27.352800   0.002667   0.002243 -18.217000   0.006018   0.001920 -25.852800  -0.774396   1.601260 -38.795400   0.000640  -0.001176 -25.837700   0.004261   0.002529   3.424870  -1.485910   4.461740  75.214200   2.134820  -9.027260   0.684626  -7.972380   6.984690  -0.126280   2.819610   1.328100 -37.955800  19.988600  59.833000  12.091800  -0.002504   0.000649   1.045890   0.009736   0.011715  16.138000   3.868960  13.133900  13.568400  -0.003406   0.011310   9.498220  -0.005025   0.003646  26.173200   3.814720   7.722600  26.430800  -0.013781   0.000845  17.602800  -0.002720   0.001254  20.797800   1.095980   2.875960  20.825300  -0.002208   0.002301  13.869800  -0.006595   0.001849  25.166700   1.171890   2.492180  37.788100  -0.001652   0.005134  25.166900   0.007813   0.003558   1.980470   9.360380   2.814940   1.264530   0.057656   2.689200  -1.567180  -2.896350   1.447130   0.000000   0.000000  -0.000000   3.798850   9.062920  -2.124410  -0.211952   1.778880  -3.198420  -2.102770  -4.636500  -2.642150   0.000000   0.000000   0.000000
